# Blender v2.79 (sub 0) OBJ File: 'PentagonFoundation.blend'
# www.blender.org
mtllib PentagonFoundation.mtl
o Cube
v -1.500000 -1.500000 -2.308260
v 2.427001 -1.500000 0.544900
v 0.000000 -1.500000 2.308260
v -2.427000 -1.500000 0.544900
v -1.500000 1.500000 -2.308260
v 2.427000 1.500000 0.544900
v 0.000000 1.500000 2.308260
v -2.427000 1.500000 0.544900
v 1.500000 -1.500000 -2.308263
v 1.500000 1.500000 -2.308263
vt 0.808963 0.950988
vt 0.191037 0.950988
vt 0.000098 0.363306
vt 0.500000 0.000098
vt 0.999903 0.363305
vt 0.999913 0.000087
vt 0.999913 0.749967
vt 0.000087 0.749967
vt 0.000087 0.000087
vt 0.999913 0.000087
vt 0.999913 0.749967
vt 0.000087 0.749967
vt 0.000087 0.000087
vt 0.000087 0.749962
vt 0.000087 0.000087
vt 0.999913 0.000087
vt 0.999913 0.749962
vt 0.999913 0.000087
vt 0.999913 0.749957
vt 0.000087 0.749957
vt 0.000087 0.000087
vt 0.999913 0.000087
vt 0.999913 0.749962
vt 0.000087 0.749961
vt 0.000087 0.000087
vn 0.0000 1.0000 -0.0000
vn 0.9511 0.0000 -0.3090
vn 0.5878 0.0000 0.8090
vn -0.5878 -0.0000 0.8090
vn -0.9511 0.0000 -0.3090
vn -0.0000 0.0000 -1.0000
usemtl Material
s off
f 5/1/1 8/2/1 7/3/1 6/4/1 10/5/1
f 9/6/2 10/7/2 6/8/2 2/9/2
f 2/10/3 6/11/3 7/12/3 3/13/3
f 3/14/4 7/15/4 8/16/4 4/17/4
f 5/18/5 1/19/5 4/20/5 8/21/5
f 1/22/6 5/23/6 10/24/6 9/25/6
