# Blender v2.79 (sub 0) OBJ File: 'PlayerBuildingWallCollider.blend'
# www.blender.org
mtllib PlayerBuildingWallCollider.mtl
o Cube
v 1.252500 -1.485000 -0.023750
v 1.252500 -1.485000 0.023750
v -1.252500 -1.485000 0.023750
v -1.252500 -1.485000 -0.023750
v 1.252500 1.485000 -0.023750
v 1.252499 1.485000 0.023751
v -1.252500 1.485000 0.023750
v -1.252500 1.485000 -0.023750
vt 0.999984 0.000016
vt 0.999984 0.025015
vt 0.000016 0.025015
vt 0.000016 0.000017
vt 0.999984 0.025016
vt 0.000016 0.025017
vt 0.000016 0.000017
vt 0.999984 0.000016
vt 0.025014 0.000016
vt 0.025015 0.999984
vt 0.000016 0.999984
vt 0.000016 0.000016
vt 0.999900 0.000100
vt 0.999900 0.999900
vt 0.000100 0.999900
vt 0.000100 0.000100
vt 0.025014 0.000016
vt 0.025015 0.999984
vt 0.000016 0.999984
vt 0.999900 0.000100
vt 0.999900 0.999900
vt 0.000100 0.999900
vt 0.000100 0.000100
vn 0.0000 -1.0000 -0.0000
vn 0.0000 1.0000 0.0000
vn 1.0000 0.0000 0.0000
vn -0.0000 -0.0000 1.0000
vn -1.0000 0.0000 -0.0000
vn 0.0000 0.0000 -1.0000
usemtl Material
s off
f 1/1/1 2/2/1 3/3/1 4/4/1
f 5/5/2 8/6/2 7/7/2 6/8/2
f 1/9/3 5/10/3 6/11/3 2/12/3
f 2/13/4 6/14/4 7/15/4 3/16/4
f 3/17/5 7/18/5 8/19/5 4/4/5
f 5/20/6 1/21/6 4/22/6 8/23/6
