# Blender v2.79 (sub 0) OBJ File: 'SquareFoundationCollider.blend'
# www.blender.org
mtllib SquareFoundationCollider.mtl
o Cube
v 1.485000 -1.500000 -1.485000
v 1.485000 -1.500000 1.485000
v -1.485000 -1.500000 1.485000
v -1.485000 -1.500000 -1.485000
v 1.485000 1.500000 -1.485000
v 1.485000 1.500000 1.485000
v -1.485000 1.500000 1.485000
v -1.485000 1.500000 -1.485000
vt 0.999900 0.999900
vt 0.000100 0.999900
vt 0.000100 0.000100
vt 0.999900 0.000100
vt 0.999913 0.000087
vt 0.996094 0.996094
vt 0.000000 0.996094
vt 0.000087 0.000087
vt 0.999913 0.000087
vt 0.996094 0.996094
vt 0.000000 0.996094
vt 0.000087 0.000087
vt 0.000000 0.996094
vt 0.999913 0.000087
vt 0.996094 0.996094
vt 0.999913 0.000087
vt 0.996094 0.996094
vt 0.000000 0.996094
vt 0.000087 0.000087
vn 0.0000 1.0000 0.0000
vn 1.0000 0.0000 0.0000
vn 0.0000 0.0000 1.0000
vn -1.0000 0.0000 0.0000
vn 0.0000 0.0000 -1.0000
vn 0.0000 -1.0000 0.0000
usemtl Material
s off
f 5/1/1 8/2/1 7/3/1 6/4/1
f 1/5/2 5/6/2 6/7/2 2/8/2
f 2/9/3 6/10/3 7/11/3 3/12/3
f 3/13/4 7/3/4 8/14/4 4/15/4
f 5/16/5 1/17/5 4/18/5 8/19/5
f 1/17/6 2/9/6 3/13/6 4/18/6
