# Blender v2.79 (sub 0) OBJ File: 'TriangleFoundation.blend'
# www.blender.org
mtllib TriangleFoundation.mtl
o Cube_Cube.001
v 1.500000 -1.500000 -1.299000
v 1.500000 1.500000 -1.299000
v -1.500000 -1.500000 -1.299000
v -1.500000 1.500000 -1.299000
v 0.000000 -1.500000 1.299000
v 0.000000 1.500000 1.299000
vt 0.999900 0.000100
vt 0.999900 0.999345
vt 0.000100 0.999345
vt 0.000100 0.000100
vt 0.999900 0.000100
vt 0.999900 0.999345
vt 0.000100 0.999345
vt 0.000100 0.000100
vt 0.000093 0.999907
vt 0.000093 0.000093
vt 0.865637 0.499445
vt 0.000100 0.000100
vt 0.999900 0.000100
vt 0.999900 0.999900
vt 0.000100 0.999900
vn 0.8660 0.0000 0.5000
vn -0.8660 0.0000 0.5000
vn 0.0000 1.0000 0.0000
vn -0.0000 0.0000 -1.0000
usemtl None
s off
f 1/1/1 2/2/1 6/3/1 5/4/1
f 5/5/2 6/6/2 4/7/2 3/8/2
f 6/9/3 2/10/3 4/11/3
f 1/12/4 3/13/4 4/14/4 2/15/4
